<svg width="512" height="512" viewBox="0 0 512 512" fill="none" xmlns="http://www.w3.org/2000/svg">
<rect width="512" height="512" rx="80" fill="#EE6C4D"/>
<path d="M338.503 88.8856C278.333 132.975 215.166 148.459 143.783 152.839C141.664 152.969 140 154.721 140 156.844V257.209C140 259.367 141.7 261.127 143.858 261.149C157.154 261.283 203.158 260.879 255.804 250.454C308.239 240.07 335.419 228.445 342.862 224.944C344.199 224.315 345.005 222.968 345.005 221.49V92.1292C345.005 88.8095 341.181 86.9234 338.503 88.8856Z" stroke="#FCEADE" stroke-width="25"/>
<path d="M338.503 422.28C278.333 378.191 215.166 362.707 143.783 358.327C141.664 358.197 140 356.445 140 354.322V253.957C140 251.799 141.7 250.039 143.858 250.017C157.154 249.882 203.158 250.287 255.804 260.712C308.239 271.095 335.419 282.721 342.862 286.222C344.199 286.851 345.005 288.198 345.005 289.676V419.037C345.005 422.356 341.181 424.242 338.503 422.28Z" fill="#FCEADE" stroke="#FCEADE" stroke-width="25"/>
</svg>
